<?xml version="1.0" encoding="UTF-8"?>
<svg xmlns="http://www.w3.org/2000/svg" xmlns:xlink="http://www.w3.org/1999/xlink" width="375pt" height="374.999991pt" viewBox="0 0 375 374.999991" version="1.2">
<defs>
<clipPath id="clip1">
  <path d="M 287 304 L 334 304 L 334 350.386719 L 287 350.386719 Z M 287 304 "/>
</clipPath>
<clipPath id="clip2">
  <path d="M 135 304 L 183 304 L 183 350.386719 L 135 350.386719 Z M 135 304 "/>
</clipPath>
</defs>
<g id="surface1">
<path style=" stroke:none;fill-rule:nonzero;fill:rgb(0%,0%,0%);fill-opacity:1;" d="M 7.863281 33.800781 C 9.195312 28.453125 14.972656 24.886719 20.753906 26.226562 L 74.09375 40.488281 C 79.871094 41.824219 82.984375 47.617188 81.648438 53.410156 C 81.648438 53.855469 81.203125 54.746094 80.761719 55.195312 L 90.539062 93.519531 L 358.570312 93.519531 C 359.902344 93.519531 361.679688 93.964844 362.570312 94.859375 C 366.570312 96.640625 368.792969 99.761719 367.90625 103.324219 L 331.898438 234.351562 C 331.011719 237.023438 327.898438 238.808594 324.34375 238.808594 C 323.453125 239.253906 322.121094 239.253906 321.234375 239.253906 L 132.320312 239.253906 L 132.320312 278.472656 L 327.898438 278.472656 C 332.789062 278.472656 337.234375 282.929688 337.234375 288.277344 C 337.234375 293.625 333.234375 298.082031 327.898438 298.082031 L 119.875 298.082031 C 114.984375 298.082031 110.542969 293.625 110.542969 288.277344 C 110.542969 288.277344 110.542969 287.832031 110.542969 287.832031 C 110.542969 287.832031 110.542969 287.386719 110.542969 287.386719 L 110.542969 239.253906 C 110.542969 238.363281 110.542969 237.472656 110.984375 236.578125 C 109.652344 235.242188 108.320312 233.90625 107.875 231.675781 L 62.980469 59.203125 L 15.417969 46.28125 C 10.085938 44.941406 6.527344 39.148438 7.863281 33.800781 Z M 122.988281 217.863281 L 317.675781 217.863281 L 347.457031 110.011719 L 94.984375 110.011719 Z M 122.988281 217.863281 "/>
<g clip-path="url(#clip1)" clip-rule="nonzero">
<path style=" stroke:none;fill-rule:nonzero;fill:rgb(0%,0%,0%);fill-opacity:1;" d="M 287.449219 327.496094 C 287.449219 328.253906 287.488281 329.011719 287.5625 329.765625 C 287.636719 330.523438 287.746094 331.273438 287.894531 332.015625 C 288.042969 332.761719 288.226562 333.496094 288.445312 334.222656 C 288.664062 334.949219 288.921875 335.664062 289.210938 336.363281 C 289.5 337.066406 289.824219 337.75 290.179688 338.417969 C 290.535156 339.089844 290.925781 339.738281 291.347656 340.371094 C 291.765625 341 292.21875 341.609375 292.699219 342.195312 C 293.175781 342.785156 293.683594 343.34375 294.21875 343.882812 C 294.757812 344.417969 295.316406 344.929688 295.902344 345.410156 C 296.488281 345.890625 297.09375 346.34375 297.722656 346.765625 C 298.351562 347.1875 299 347.574219 299.667969 347.933594 C 300.335938 348.292969 301.019531 348.617188 301.71875 348.90625 C 302.417969 349.195312 303.128906 349.453125 303.855469 349.671875 C 304.578125 349.890625 305.3125 350.078125 306.054688 350.222656 C 306.796875 350.371094 307.546875 350.484375 308.300781 350.558594 C 309.050781 350.632812 309.808594 350.667969 310.566406 350.667969 C 311.320312 350.667969 312.078125 350.632812 312.828125 350.558594 C 313.582031 350.484375 314.332031 350.371094 315.074219 350.222656 C 315.816406 350.078125 316.550781 349.890625 317.273438 349.671875 C 318 349.453125 318.710938 349.195312 319.410156 348.90625 C 320.109375 348.617188 320.792969 348.292969 321.460938 347.933594 C 322.128906 347.574219 322.777344 347.1875 323.40625 346.765625 C 324.035156 346.34375 324.644531 345.890625 325.226562 345.410156 C 325.8125 344.929688 326.375 344.417969 326.910156 343.882812 C 327.445312 343.34375 327.953125 342.785156 328.433594 342.195312 C 328.910156 341.609375 329.363281 341 329.78125 340.371094 C 330.203125 339.738281 330.59375 339.089844 330.949219 338.417969 C 331.304688 337.75 331.628906 337.066406 331.917969 336.363281 C 332.207031 335.664062 332.464844 334.949219 332.683594 334.222656 C 332.902344 333.496094 333.085938 332.761719 333.234375 332.015625 C 333.382812 331.273438 333.492188 330.523438 333.566406 329.765625 C 333.640625 329.011719 333.679688 328.253906 333.679688 327.496094 C 333.679688 326.734375 333.640625 325.980469 333.566406 325.222656 C 333.492188 324.46875 333.382812 323.71875 333.234375 322.972656 C 333.085938 322.230469 332.902344 321.496094 332.683594 320.769531 C 332.464844 320.042969 332.207031 319.328125 331.917969 318.625 C 331.628906 317.925781 331.304688 317.238281 330.949219 316.570312 C 330.59375 315.902344 330.203125 315.25 329.78125 314.621094 C 329.363281 313.988281 328.910156 313.378906 328.433594 312.792969 C 327.953125 312.207031 327.445312 311.644531 326.910156 311.109375 C 326.375 310.570312 325.8125 310.0625 325.226562 309.582031 C 324.644531 309.097656 324.035156 308.648438 323.40625 308.226562 C 322.777344 307.804688 322.128906 307.414062 321.460938 307.058594 C 320.792969 306.699219 320.109375 306.375 319.410156 306.085938 C 318.710938 305.792969 318 305.539062 317.273438 305.320312 C 316.550781 305.097656 315.816406 304.914062 315.074219 304.765625 C 314.332031 304.617188 313.582031 304.507812 312.828125 304.433594 C 312.078125 304.359375 311.320312 304.320312 310.566406 304.320312 C 309.808594 304.320312 309.050781 304.359375 308.300781 304.433594 C 307.546875 304.507812 306.796875 304.617188 306.054688 304.765625 C 305.3125 304.914062 304.578125 305.097656 303.855469 305.320312 C 303.128906 305.539062 302.417969 305.792969 301.71875 306.085938 C 301.019531 306.375 300.335938 306.699219 299.667969 307.058594 C 299 307.414062 298.351562 307.804688 297.722656 308.226562 C 297.09375 308.648438 296.488281 309.097656 295.902344 309.582031 C 295.316406 310.0625 294.757812 310.570312 294.21875 311.109375 C 293.683594 311.644531 293.175781 312.207031 292.699219 312.792969 C 292.21875 313.378906 291.765625 313.988281 291.347656 314.621094 C 290.925781 315.25 290.535156 315.902344 290.179688 316.570312 C 289.824219 317.238281 289.5 317.925781 289.210938 318.625 C 288.921875 319.328125 288.664062 320.042969 288.445312 320.769531 C 288.226562 321.496094 288.042969 322.230469 287.894531 322.972656 C 287.746094 323.71875 287.636719 324.46875 287.5625 325.222656 C 287.488281 325.980469 287.449219 326.734375 287.449219 327.496094 Z M 287.449219 327.496094 "/>
</g>
<g clip-path="url(#clip2)" clip-rule="nonzero">
<path style=" stroke:none;fill-rule:nonzero;fill:rgb(0%,0%,0%);fill-opacity:1;" d="M 135.878906 327.496094 C 135.878906 328.253906 135.914062 329.011719 135.988281 329.765625 C 136.0625 330.523438 136.175781 331.273438 136.320312 332.015625 C 136.46875 332.761719 136.652344 333.496094 136.871094 334.222656 C 137.09375 334.949219 137.347656 335.664062 137.636719 336.363281 C 137.925781 337.066406 138.25 337.75 138.605469 338.417969 C 138.964844 339.089844 139.351562 339.738281 139.773438 340.371094 C 140.195312 341 140.644531 341.609375 141.125 342.195312 C 141.605469 342.785156 142.113281 343.34375 142.648438 343.882812 C 143.183594 344.417969 143.742188 344.929688 144.328125 345.410156 C 144.914062 345.890625 145.519531 346.34375 146.148438 346.765625 C 146.78125 347.1875 147.429688 347.574219 148.09375 347.933594 C 148.761719 348.292969 149.445312 348.617188 150.144531 348.90625 C 150.84375 349.195312 151.558594 349.453125 152.28125 349.671875 C 153.007812 349.890625 153.738281 350.078125 154.480469 350.222656 C 155.222656 350.371094 155.972656 350.484375 156.726562 350.558594 C 157.480469 350.632812 158.234375 350.667969 158.992188 350.667969 C 159.75 350.667969 160.503906 350.632812 161.257812 350.558594 C 162.011719 350.484375 162.757812 350.371094 163.5 350.222656 C 164.242188 350.078125 164.976562 349.890625 165.699219 349.671875 C 166.425781 349.453125 167.136719 349.195312 167.835938 348.90625 C 168.535156 348.617188 169.21875 348.292969 169.886719 347.933594 C 170.554688 347.574219 171.203125 347.1875 171.832031 346.765625 C 172.460938 346.34375 173.070312 345.890625 173.65625 345.410156 C 174.238281 344.929688 174.800781 344.417969 175.335938 343.882812 C 175.871094 343.34375 176.378906 342.785156 176.859375 342.195312 C 177.339844 341.609375 177.789062 341 178.210938 340.371094 C 178.628906 339.738281 179.019531 339.089844 179.375 338.417969 C 179.734375 337.75 180.054688 337.066406 180.347656 336.363281 C 180.636719 335.664062 180.890625 334.949219 181.109375 334.222656 C 181.328125 333.496094 181.511719 332.761719 181.660156 332.015625 C 181.808594 331.273438 181.917969 330.523438 181.992188 329.765625 C 182.066406 329.011719 182.105469 328.253906 182.105469 327.496094 C 182.105469 326.734375 182.066406 325.980469 181.992188 325.222656 C 181.917969 324.46875 181.808594 323.71875 181.660156 322.972656 C 181.511719 322.230469 181.328125 321.496094 181.109375 320.769531 C 180.890625 320.042969 180.636719 319.328125 180.347656 318.625 C 180.054688 317.925781 179.734375 317.238281 179.375 316.570312 C 179.019531 315.902344 178.628906 315.25 178.210938 314.621094 C 177.789062 313.988281 177.339844 313.378906 176.859375 312.792969 C 176.378906 312.207031 175.871094 311.644531 175.335938 311.109375 C 174.800781 310.570312 174.238281 310.0625 173.65625 309.582031 C 173.070312 309.097656 172.460938 308.648438 171.832031 308.226562 C 171.203125 307.804688 170.554688 307.414062 169.886719 307.058594 C 169.21875 306.699219 168.535156 306.375 167.835938 306.085938 C 167.136719 305.792969 166.425781 305.539062 165.699219 305.320312 C 164.976562 305.097656 164.242188 304.914062 163.5 304.765625 C 162.757812 304.617188 162.011719 304.507812 161.257812 304.433594 C 160.503906 304.359375 159.75 304.320312 158.992188 304.320312 C 158.234375 304.320312 157.480469 304.359375 156.726562 304.433594 C 155.972656 304.507812 155.222656 304.617188 154.480469 304.765625 C 153.738281 304.914062 153.007812 305.097656 152.28125 305.320312 C 151.558594 305.539062 150.84375 305.792969 150.144531 306.085938 C 149.445312 306.375 148.761719 306.699219 148.09375 307.058594 C 147.429688 307.414062 146.78125 307.804688 146.148438 308.226562 C 145.519531 308.648438 144.914062 309.097656 144.328125 309.582031 C 143.742188 310.0625 143.183594 310.570312 142.648438 311.109375 C 142.113281 311.644531 141.605469 312.207031 141.125 312.792969 C 140.644531 313.378906 140.195312 313.988281 139.773438 314.621094 C 139.351562 315.25 138.964844 315.902344 138.605469 316.570312 C 138.25 317.238281 137.925781 317.925781 137.636719 318.625 C 137.347656 319.328125 137.09375 320.042969 136.871094 320.769531 C 136.652344 321.496094 136.46875 322.230469 136.320312 322.972656 C 136.175781 323.71875 136.0625 324.46875 135.988281 325.222656 C 135.914062 325.980469 135.878906 326.734375 135.878906 327.496094 Z M 135.878906 327.496094 "/>
</g>
</g>
</svg>
